<?xml version="1.0" encoding="utf-8"?><svg viewBox="0 0 22 25" xmlns="http://www.w3.org/2000/svg" xmlns:xlink="http://www.w3.org/1999/xlink"><style>:root>svg{display:none}:root>svg:target{display:block}</style><svg fill="#262626" viewBox="0 0 6.1 10.97" id="after-link" xmlns="http://www.w3.org/2000/svg"><?xpacket end="w"?><defs><style>.acls-1{fill:#262626;fill-rule:evenodd}</style></defs><path class="acls-1" d="M.55 10.97a.53.53 0 01-.41-.19.6.6 0 01-.15-.4.631.631 0 01.17-.43l4.55-4.47L.16 1A.607.607 0 01-.01.58.629.629 0 01.14.17a.559.559 0 01.8-.02l4.98 4.9.01.01a.657.657 0 01.12.17.7.7 0 01.05.25.742.742 0 01-.05.25.61.61 0 01-.12.16c0 .01-.01.01-.01.02l-4.98 4.9a.589.589 0 01-.39.16z"/></svg><svg viewBox="0 0 22 9" id="arrow-btn" xmlns="http://www.w3.org/2000/svg"><path d="M.3 5.472h16.948l-.1 2.857a.292.292 0 000 .41l.172.172a.28.28 0 00.2.086.285.285 0 00.2-.084l4.193-4.211A.292.292 0 0022 4.5a.283.283 0 00-.084-.2L17.723.087a.289.289 0 00-.407 0l-.172.173a.287.287 0 00-.084.2.278.278 0 00.084.2l.113 2.865H.292A.3.3 0 000 3.82v1.37a.292.292 0 00.3.282z" fill-rule="evenodd"/></svg><svg viewBox="0 0 20 18" id="cart" xmlns="http://www.w3.org/2000/svg"><path d="M.738 1.469H2.86l3.024 10.836c.09.312.383.53.715.53h9.285a.757.757 0 00.68-.433L19.94 4.7a.75.75 0 00-.062-.703.738.738 0 00-.617-.332H9a.742.742 0 00-.746.738c0 .407.336.739.746.739h9.129l-2.738 6.226H7.152L4.132.54A.737.737 0 003.415 0H.738A.737.737 0 000 .734a.74.74 0 00.738.735zM5.895 18a1.675 1.675 0 001.687-1.66c0-.922-.754-1.668-1.68-1.668a1.67 1.67 0 00-1.683 1.664c0 .918.75 1.66 1.676 1.664zm10.48 0h.125a1.722 1.722 0 001.672-1.746 1.725 1.725 0 00-1.735-1.684c-.945 0-1.714.75-1.734 1.684A1.722 1.722 0 0016.375 18zm0 0"/></svg><svg viewBox="0 0 20.03 20.031" id="dots" xmlns="http://www.w3.org/2000/svg"><path d="M2.15 4.287a2.146 2.146 0 112.14-2.145 2.145 2.145 0 01-2.14 2.145zm0 7.869a2.146 2.146 0 112.14-2.147 2.146 2.146 0 01-2.14 2.147zm0 7.868a2.146 2.146 0 112.14-2.146 2.145 2.145 0 01-2.14 2.146zm7.86-15.737a2.146 2.146 0 112.15-2.145 2.143 2.143 0 01-2.15 2.145zm0 7.869a2.146 2.146 0 112.15-2.147 2.144 2.144 0 01-2.15 2.147zm0 7.868a2.146 2.146 0 112.15-2.146 2.143 2.143 0 01-2.15 2.146zm7.87-15.737a2.146 2.146 0 112.15-2.145 2.143 2.143 0 01-2.15 2.145zm0 7.869a2.146 2.146 0 112.15-2.147 2.144 2.144 0 01-2.15 2.147zm0 7.868a2.146 2.146 0 112.15-2.146 2.143 2.143 0 01-2.15 2.146z" fill-rule="evenodd"/></svg><svg viewBox="0 0 22 18" id="heart" xmlns="http://www.w3.org/2000/svg"><defs><style>.ecls-1{fill:#a3bbc8;fill-rule:evenodd}</style></defs><path id="eForma_1" data-name="Forma 1" class="ecls-1" d="M882.99 1569.82a6.208 6.208 0 00-1.849-4.1A5.871 5.871 0 00877 1564c-2.311 0-3.948 1.78-4.827 2.74a2.156 2.156 0 01-.156.17l-.083-.09c-.8-.92-2.476-2.82-4.938-2.82a5.873 5.873 0 00-4.139 1.72 6.208 6.208 0 00-1.849 4.1 6.845 6.845 0 001.271 4.34 29.307 29.307 0 004.763 4.75c1.705 1.41 3.95 3.09 4.965 3.09 1.032 0 3.269-1.68 4.965-3.09a29.234 29.234 0 004.746-4.75 6.935 6.935 0 001.272-4.34zm-2.376 3.61a27 27 0 01-4.431 4.42c-2.406 2-3.831 2.79-4.172 2.82-.342-.03-1.77-.83-4.188-2.84a26.78 26.78 0 01-4.437-4.4 5.6 5.6 0 01-1.054-3.54 4.807 4.807 0 014.666-4.57c1.863 0 3.216 1.54 3.943 2.37a1.52 1.52 0 001.059.76 1.731 1.731 0 001.151-.81c.794-.87 2.122-2.32 3.851-2.32a4.807 4.807 0 014.666 4.57 5.528 5.528 0 01-1.054 3.54z" transform="translate(-861 -1564)"/></svg><svg viewBox="0 0 20 16" id="like" xmlns="http://www.w3.org/2000/svg"><path d="M19.992 5.172a5.469 5.469 0 00-1.683-3.645A5.396 5.396 0 0014.547 0c-2.102 0-3.59 1.582-4.39 2.438a1.67 1.67 0 01-.141.148l-.075-.078C9.211 1.688 7.687 0 5.45 0a5.42 5.42 0 00-3.761 1.527 5.482 5.482 0 00-1.68 3.645 5.964 5.964 0 001.156 3.86 26.204 26.204 0 004.328 4.222C7.043 14.508 9.082 16 10.008 16c.937 0 2.969-1.492 4.512-2.746a26.284 26.284 0 004.316-4.223 6.086 6.086 0 001.156-3.86zm-2.16 3.21a24.295 24.295 0 01-4.031 3.93c-2.184 1.778-3.48 2.481-3.79 2.504-.312-.023-1.609-.738-3.808-2.523a24.05 24.05 0 01-4.035-3.91 4.913 4.913 0 01-.957-3.149c.113-2.226 1.96-4 4.242-4.062 1.692 0 2.922 1.371 3.586 2.11.2.355.55.6.961.675a1.584 1.584 0 001.047-.723c.723-.773 1.93-2.062 3.5-2.062 2.281.062 4.129 1.836 4.242 4.062a4.839 4.839 0 01-.957 3.149zm0 0" fill="#abc1cd"/></svg><svg viewBox="0 0 20 16" id="like-white" xmlns="http://www.w3.org/2000/svg"><path d="M19.992 5.172a5.469 5.469 0 00-1.683-3.645A5.396 5.396 0 0014.547 0c-2.102 0-3.59 1.582-4.39 2.438a1.67 1.67 0 01-.141.148l-.075-.078C9.211 1.688 7.687 0 5.45 0a5.42 5.42 0 00-3.761 1.527 5.482 5.482 0 00-1.68 3.645 5.964 5.964 0 001.156 3.86 26.204 26.204 0 004.328 4.222C7.043 14.508 9.082 16 10.008 16c.937 0 2.969-1.492 4.512-2.746a26.284 26.284 0 004.316-4.223 6.086 6.086 0 001.156-3.86zm-2.16 3.21a24.295 24.295 0 01-4.031 3.93c-2.184 1.778-3.48 2.481-3.79 2.504-.312-.023-1.609-.738-3.808-2.523a24.05 24.05 0 01-4.035-3.91 4.913 4.913 0 01-.957-3.149c.113-2.226 1.96-4 4.242-4.062 1.692 0 2.922 1.371 3.586 2.11.2.355.55.6.961.675a1.584 1.584 0 001.047-.723c.723-.773 1.93-2.062 3.5-2.062 2.281.062 4.129 1.836 4.242 4.062a4.839 4.839 0 01-.957 3.149zm0 0" fill="#fff"/></svg><svg viewBox="0 0 20 20" id="search" xmlns="http://www.w3.org/2000/svg"><path d="M19.45 16.8l-4.587-4.59a8.84 8.84 0 01-2.652 2.65l4.59 4.59c.73.734 1.918.734 2.648 0a1.87 1.87 0 000-2.65zM15 7.5C15 3.36 11.64 0 7.5 0 3.36 0 0 3.36 0 7.5 0 11.64 3.36 15 7.5 15c4.14 0 7.5-3.36 7.5-7.5zm-7.5 5.621a5.627 5.627 0 01-5.625-5.629 5.621 5.621 0 015.629-5.62 5.624 5.624 0 01-.004 11.25zM3.125 7.5h1.25A3.132 3.132 0 017.5 4.371v-1.25A4.386 4.386 0 003.125 7.5zm0 0"/></svg><svg viewBox="0 0 20 20" id="search-white" xmlns="http://www.w3.org/2000/svg"><path d="M19.45 16.8l-4.587-4.59a8.84 8.84 0 01-2.652 2.65l4.59 4.59c.73.734 1.918.734 2.648 0a1.87 1.87 0 000-2.65zM15 7.5C15 3.36 11.64 0 7.5 0 3.36 0 0 3.36 0 7.5 0 11.64 3.36 15 7.5 15c4.14 0 7.5-3.36 7.5-7.5zm-7.5 5.621a5.627 5.627 0 01-5.625-5.629 5.621 5.621 0 015.629-5.62 5.624 5.624 0 01-.004 11.25zM3.125 7.5h1.25A3.132 3.132 0 017.5 4.371v-1.25A4.386 4.386 0 003.125 7.5zm0 0" fill="#fff"/></svg><svg viewBox="0 0 22 25" id="video" xmlns="http://www.w3.org/2000/svg"><defs><style>.jcls-1{fill:#fff;fill-rule:evenodd}</style></defs><path id="jForm_24" data-name="Form 24" class="jcls-1" d="M970.684 3900.74l-16.044 9.8a3.228 3.228 0 01-3.062.14 2.685 2.685 0 01-1.579-2.39v-19.59a2.685 2.685 0 011.579-2.39 3.258 3.258 0 013.062.15l16.044 9.79a2.666 2.666 0 011.316 2.25 2.638 2.638 0 01-1.316 2.24z" transform="translate(-950 -3886)"/></svg></svg>