<?xml version="1.0" encoding="utf-8"?><svg viewBox="0 0 512 512" xmlns="http://www.w3.org/2000/svg" xmlns:xlink="http://www.w3.org/1999/xlink"><style>:root>svg{display:none}:root>svg:target{display:block}</style><svg fill="#262626" viewBox="0 0 6.1 10.97" id="after-link" xmlns="http://www.w3.org/2000/svg"><?xpacket end="w"?><defs><style>.acls-1{fill:#262626;fill-rule:evenodd}</style></defs><path class="acls-1" d="M.55 10.97a.53.53 0 01-.41-.19.6.6 0 01-.15-.4.631.631 0 01.17-.43l4.55-4.47L.16 1A.607.607 0 01-.01.58.629.629 0 01.14.17a.559.559 0 01.8-.02l4.98 4.9.01.01a.657.657 0 01.12.17.7.7 0 01.05.25.742.742 0 01-.05.25.61.61 0 01-.12.16c0 .01-.01.01-.01.02l-4.98 4.9a.589.589 0 01-.39.16z"/></svg><svg viewBox="0 0 284.935 284.936" id="angle-btn"><path d="M110.488 142.468L222.694 30.264c1.902-1.903 2.854-4.093 2.854-6.567s-.951-4.664-2.854-6.563L208.417 2.857C206.513.955 204.324 0 201.856 0c-2.475 0-4.664.955-6.567 2.857L62.24 135.9c-1.903 1.903-2.852 4.093-2.852 6.567 0 2.475.949 4.664 2.852 6.567l133.042 133.043c1.906 1.906 4.097 2.857 6.571 2.857 2.471 0 4.66-.951 6.563-2.857l14.277-14.267c1.902-1.903 2.851-4.094 2.851-6.57 0-2.472-.948-4.661-2.851-6.564L110.488 142.468z"/></svg><svg viewBox="0 0 22 9" id="arrow-btn" xmlns="http://www.w3.org/2000/svg"><path d="M.3 5.472h16.948l-.1 2.857a.292.292 0 000 .41l.172.172a.28.28 0 00.2.086.285.285 0 00.2-.084l4.193-4.211A.292.292 0 0022 4.5a.283.283 0 00-.084-.2L17.723.087a.289.289 0 00-.407 0l-.172.173a.287.287 0 00-.084.2.278.278 0 00.084.2l.113 2.865H.292A.3.3 0 000 3.82v1.37a.292.292 0 00.3.282z" fill-rule="evenodd"/></svg><svg viewBox="0 0 10 5" id="arrow-down" xmlns="http://www.w3.org/2000/svg"><path fill-rule="evenodd" fill="#8D8D8D" d="M4.983 4.999a.756.756 0 01-.496-.179L.173 1.048a.56.56 0 010-.869.779.779 0 01.994 0l3.816 3.337L8.8.18a.776.776 0 01.994 0 .561.561 0 010 .868L5.48 4.82a.754.754 0 01-.497.179z"/></svg><svg viewBox="0 0 43 42" id="awards" xmlns="http://www.w3.org/2000/svg"><path fill-rule="evenodd" fill="#A3BBC8" d="M41.984 8.578L28.765 29.025a8.533 8.533 0 01.824 3.67c0 4.673-3.743 8.475-8.342 8.475-4.601 0-8.344-3.802-8.344-8.475 0-1.313.296-2.559.825-3.671L.509 8.578a.917.917 0 01.116-1.139l6.318-6.418a.888.888 0 01.631-.266h27.345c.237 0 .464.096.631.266l6.319 6.418a.92.92 0 01.115 1.139zM21.247 39.357c3.615 0 6.557-2.988 6.557-6.662 0-3.672-2.942-6.661-6.557-6.661-3.617 0-6.559 2.989-6.559 6.661 0 3.674 2.942 6.662 6.559 6.662zm.013-15.136l9.849-15.234H11.383l9.85 15.234h.027zm-6.481 3.127a8.35 8.35 0 014.477-2.883L9.247 8.987H2.909l11.87 18.361zm19.77-24.78H7.943L3.41 7.174h35.674l-4.535-4.606zm-1.304 6.419L23.237 24.465a8.346 8.346 0 014.477 2.884l11.87-18.362h-6.339zm-13.114 20.39h1.419a.9.9 0 01.892.908v5.808a.9.9 0 01-.892.906.9.9 0 01-.893-.906v-4.902h-.526a.9.9 0 01-.892-.906.9.9 0 01.892-.908z"/></svg><svg viewBox="0 0 49 64" id="brands" xmlns="http://www.w3.org/2000/svg"><path fill-rule="evenodd" fill="#243F4D" d="M47.581 22.502a3.45 3.45 0 01.001 3.575l-1.314 2.174c-.173.287-.24.627-.188.958l.391 2.513a3.433 3.433 0 01-1.359 3.309l-2.036 1.495c-.27.198-.461.486-.539.813l-.593 2.473a3.403 3.403 0 01-2.506 2.529l-.984.241 6.927 15.6c.147.331.107.717-.107 1.009a.993.993 0 01-.922.404l-5.572-.672-3.209 4.645a.996.996 0 01-.912.427.999.999 0 01-.818-.591l-7.08-15.944-.929.572a3.371 3.371 0 01-3.541 0l-.896-.552-7.071 15.924a1.002 1.002 0 01-.912.596.994.994 0 01-.818-.432l-3.21-4.645-5.571.672a.994.994 0 01-.923-.404 1.016 1.016 0 01-.107-1.009l6.924-15.591-1.023-.25a3.405 3.405 0 01-2.505-2.53l-.593-2.473a1.42 1.42 0 00-.539-.813l-2.036-1.494a3.437 3.437 0 01-1.359-3.311l.392-2.511a1.429 1.429 0 00-.188-.958L.542 26.077a3.448 3.448 0 010-3.575l1.314-2.175c.173-.286.24-.626.188-.958l-.391-2.512a3.432 3.432 0 011.359-3.31l2.036-1.495c.269-.197.46-.486.539-.812l.593-2.474a3.403 3.403 0 012.505-2.529l2.45-.599c.324-.079.61-.272.806-.543l1.48-2.056A3.372 3.372 0 0116.7 1.668l2.488.395c.329.052.666-.016.949-.19L22.291.547a3.36 3.36 0 013.541 0l2.155 1.326c.283.175.621.242.949.19l2.488-.395a3.372 3.372 0 013.279 1.372l1.481 2.055c.196.272.482.465.805.544l2.45.599a3.403 3.403 0 012.506 2.529l.593 2.474c.078.326.269.614.538.812l2.036 1.495a3.432 3.432 0 011.359 3.31l-.391 2.511c-.052.332.015.672.188.958l1.313 2.175zM34.942 60.955l2.543-3.681a.994.994 0 01.938-.425l4.415.533-6.319-14.229c-.128.09-.243.201-.336.331l-1.481 2.055c-.132.184-.281.35-.442.501l3.333 7.506a1.012 1.012 0 01-.502 1.332 1 1 0 01-1.32-.508l-3.311-7.456a3.402 3.402 0 01-1.037-.003l-2.487-.395a1.395 1.395 0 00-.408-.004l6.414 14.443zM5.327 57.382l4.415-.533a.994.994 0 01.937.425l2.544 3.681 6.411-14.437a1.368 1.368 0 00-.447-.003l-2.488.395a3.37 3.37 0 01-.997.01l-3.309 7.45a.998.998 0 01-.912.596 1.01 1.01 0 01-.91-1.42l3.32-7.478a3.423 3.423 0 01-.471-.53l-1.481-2.055a1.405 1.405 0 00-.304-.307L5.327 57.382zm40.549-33.831l-1.313-2.174a3.467 3.467 0 01-.456-2.321l.392-2.511a1.419 1.419 0 00-.561-1.367l-2.036-1.495a3.433 3.433 0 01-1.305-1.969l-.593-2.473a1.404 1.404 0 00-1.034-1.044l-2.45-.599a3.403 3.403 0 01-1.951-1.317l-1.481-2.056a1.392 1.392 0 00-1.353-.566l-2.489.395a3.374 3.374 0 01-2.299-.46l-2.155-1.326a1.384 1.384 0 00-1.461 0l-2.154 1.326a3.382 3.382 0 01-2.3.46l-2.487-.395a1.391 1.391 0 00-1.354.566L13.555 6.28a3.404 3.404 0 01-1.95 1.318l-2.45.598c-.514.126-.91.525-1.035 1.044l-.593 2.473a3.44 3.44 0 01-1.304 1.969l-2.037 1.495a1.42 1.42 0 00-.561 1.367l.392 2.512a3.463 3.463 0 01-.456 2.32l-1.314 2.175a1.423 1.423 0 000 1.476l1.314 2.174c.419.694.58 1.519.455 2.321l-.391 2.512a1.416 1.416 0 00.561 1.366l2.035 1.495a3.436 3.436 0 011.305 1.969l.593 2.473c.125.519.521.919 1.035 1.044l2.45.599a3.41 3.41 0 011.95 1.317l1.481 2.056c.312.432.83.649 1.354.566l2.488-.395a3.377 3.377 0 012.299.46l2.155 1.326c.45.278 1.011.278 1.462 0l2.154-1.326a3.38 3.38 0 012.299-.46l2.488.395a1.388 1.388 0 001.353-.566l1.481-2.055a3.4 3.4 0 011.951-1.317l2.45-.599c.513-.125.91-.525 1.034-1.044l.593-2.473c.19-.791.653-1.49 1.305-1.969l2.036-1.495c.429-.315.644-.838.561-1.366l-.391-2.512a3.466 3.466 0 01.456-2.321l1.313-2.175a1.423 1.423 0 000-1.476zM36.77 37.145a17.94 17.94 0 01-12.771 5.33c-3.887 0-7.787-1.26-11.047-3.82a1.015 1.015 0 01-.174-1.415.992.992 0 011.401-.176c6.363 4.999 15.468 4.421 21.179-1.344a16.277 16.277 0 002.982-18.75 1.01 1.01 0 01.441-1.353.993.993 0 011.341.445 18.302 18.302 0 01-3.352 21.083zm.025-23.247a.995.995 0 01-.749-.34 16.525 16.525 0 00-1.42-1.433 1.014 1.014 0 01-.086-1.423.991.991 0 011.409-.088 18.287 18.287 0 011.594 1.609 1.015 1.015 0 01-.087 1.423.991.991 0 01-.661.252zm-1.05 7.255c.22.684.032 1.412-.491 1.9l-4.441 4.146 1.179 5.991a1.812 1.812 0 01-.71 1.828 1.77 1.77 0 01-1.941.116l-5.279-2.983-5.28 2.983a1.792 1.792 0 01-.883.235c-.371 0-.74-.118-1.058-.351a1.812 1.812 0 01-.71-1.828l1.179-5.991-4.441-4.146a1.815 1.815 0 01-.491-1.9 1.792 1.792 0 011.503-1.246l6.008-.719 2.534-5.546a1.787 1.787 0 011.639-1.058c.712 0 1.34.406 1.638 1.058l2.534 5.546 6.008.719a1.792 1.792 0 011.503 1.246zm-8.301-.03a.997.997 0 01-.789-.578l-2.593-5.675-2.593 5.675a1 1 0 01-.79.578l-6.148.736 4.545 4.243c.255.239.37.593.302.937l-1.207 6.13 5.403-3.053a.994.994 0 01.975 0l5.403 3.053-1.207-6.13a1.018 1.018 0 01.302-.937l4.545-4.243-6.148-.736zm3.805-11.312c-6.198-3.161-13.663-1.952-18.577 3.008-5.711 5.765-6.283 14.957-1.331 21.38.339.439.26 1.073-.175 1.415a.992.992 0 01-1.401-.177c-5.569-7.224-4.927-17.561 1.495-24.043 5.525-5.578 13.92-6.937 20.889-3.382.493.251.69.857.441 1.354a.993.993 0 01-1.341.445z"/></svg><svg viewBox="0 0 20 18" id="cart" xmlns="http://www.w3.org/2000/svg"><path d="M.738 1.469H2.86l3.024 10.836c.09.312.383.53.715.53h9.285a.757.757 0 00.68-.433L19.94 4.7a.75.75 0 00-.062-.703.738.738 0 00-.617-.332H9a.742.742 0 00-.746.738c0 .407.336.739.746.739h9.129l-2.738 6.226H7.152L4.132.54A.737.737 0 003.415 0H.738A.737.737 0 000 .734a.74.74 0 00.738.735zM5.895 18a1.675 1.675 0 001.687-1.66c0-.922-.754-1.668-1.68-1.668a1.67 1.67 0 00-1.683 1.664c0 .918.75 1.66 1.676 1.664zm10.48 0h.125a1.722 1.722 0 001.672-1.746 1.725 1.725 0 00-1.735-1.684c-.945 0-1.714.75-1.734 1.684A1.722 1.722 0 0016.375 18zm0 0"/></svg><svg viewBox="0 0 64 40" id="delivery" xmlns="http://www.w3.org/2000/svg"><path fill-rule="evenodd" fill="#243F4D" d="M41.62 27.459a.996.996 0 011.002.99c0 .547-.449.99-1.002.99H26.655a.996.996 0 01-1.002-.99c0-.547.449-.99 1.002-.99H41.62zM24.518 20.99c-.257 0-.513-.097-.709-.29l-5.344-5.281a.98.98 0 010-1.4 1.012 1.012 0 011.417 0l4.636 4.58 8.911-8.804a1.01 1.01 0 011.417 0 .98.98 0 010 1.4l-9.62 9.505c-.195.193-.452.29-.708.29zm38.48 12.673h-3.276l.002.066c0 3.458-2.847 6.27-6.346 6.27-3.5 0-6.347-2.812-6.347-6.27l.002-.066H24.449l.002.066c0 3.458-2.847 6.27-6.347 6.27-3.499 0-6.346-2.812-6.346-6.27l.002-.066H6.347c-1.142 0-2.071-.918-2.071-2.046v-2.179H1.002A.996.996 0 010 28.448c0-.547.449-.99 1.002-.99h9.62a.996.996 0 011.002.99c0 .547-.449.99-1.002.99H6.28v2.179c0 .036.03.066.066.066h5.761a6.35 6.35 0 015.997-4.225 6.351 6.351 0 015.998 4.225h20.791v-7.459c0-.547.449-.99 1.002-.99a.996.996 0 011.002.99v7.459h.483a6.35 6.35 0 015.998-4.224 6.349 6.349 0 015.997 4.224h2.621v-4.356H60.86c-1.732 0-3.14-1.392-3.14-3.103v-2.112c0-.547.449-.99 1.002-.99h3.116a3.274 3.274 0 00-3.114-2.244H46.898V20c0 .547-.449.99-1.003.99a.996.996 0 01-1.002-.99V2.046a.066.066 0 00-.066-.066H6.346a.066.066 0 00-.066.066V20c0 .547-.449.99-1.002.99A.996.996 0 014.275 20V2.046C4.275.918 5.204 0 6.346 0h38.481c1.142 0 2.071.918 2.071 2.046v2.178h7.549c2.32 0 4.208 1.866 4.208 4.159v1.056c0 .476-.34.873-.793.968l1.658 6.55c2.533.381 4.48 2.547 4.48 5.155v10.561c0 .547-.449.99-1.002.99zm-44.894-4.224c-2.394 0-4.342 1.924-4.342 4.29s1.948 4.291 4.342 4.291c2.395 0 4.343-1.925 4.343-4.291 0-2.366-1.948-4.29-4.343-4.29zm35.274 0c-2.395 0-4.343 1.924-4.343 4.29s1.948 4.291 4.343 4.291c2.394 0 4.342-1.925 4.342-4.291 0-2.366-1.948-4.29-4.342-4.29zm3.273-21.056c0-1.201-.989-2.179-2.204-2.179h-7.549v2.245h9.753v-.066zm-.849 2.046h-8.904v6.469h10.541l-1.637-6.469zm6.194 12.673h-2.272v1.122c0 .619.51 1.122 1.136 1.122h1.136v-2.244zm-8.618 12.674c-1.142 0-2.071-.918-2.071-2.047 0-1.128.929-2.046 2.071-2.046 1.142 0 2.071.918 2.071 2.046 0 1.129-.929 2.047-2.071 2.047zm-35.274 0c-1.142 0-2.071-.918-2.071-2.047 0-1.128.929-2.046 2.071-2.046 1.142 0 2.071.918 2.071 2.046 0 1.129-.929 2.047-2.071 2.047zm-1.135-11.552c0 .547-.449.99-1.002.99H3.14a.996.996 0 01-1.002-.99c0-.547.448-.99 1.002-.99h12.827a.996.996 0 011.002.99z"/></svg><svg viewBox="0 0 20.03 20.031" id="dots" xmlns="http://www.w3.org/2000/svg"><path d="M2.15 4.287a2.146 2.146 0 112.14-2.145 2.145 2.145 0 01-2.14 2.145zm0 7.869a2.146 2.146 0 112.14-2.147 2.146 2.146 0 01-2.14 2.147zm0 7.868a2.146 2.146 0 112.14-2.146 2.145 2.145 0 01-2.14 2.146zm7.86-15.737a2.146 2.146 0 112.15-2.145 2.143 2.143 0 01-2.15 2.145zm0 7.869a2.146 2.146 0 112.15-2.147 2.144 2.144 0 01-2.15 2.147zm0 7.868a2.146 2.146 0 112.15-2.146 2.143 2.143 0 01-2.15 2.146zm7.87-15.737a2.146 2.146 0 112.15-2.145 2.143 2.143 0 01-2.15 2.145zm0 7.869a2.146 2.146 0 112.15-2.147 2.144 2.144 0 01-2.15 2.147zm0 7.868a2.146 2.146 0 112.15-2.146 2.143 2.143 0 01-2.15 2.146z" fill-rule="evenodd"/></svg><svg viewBox="0 0 477.875 477.875" id="filter"><path d="M460.804 0H17.071C7.645 0 .004 7.641.004 17.067V102.4a17.067 17.067 0 005.649 12.681l165.018 148.514V460.8c-.004 9.426 7.633 17.07 17.059 17.075a17.068 17.068 0 007.637-1.8l102.4-51.2a17.067 17.067 0 009.438-15.275V263.595l165.018-148.48a17.061 17.061 0 005.649-12.715V17.067C477.871 7.641 470.23 0 460.804 0zm-17.067 94.805L278.72 243.285A17.065 17.065 0 00273.071 256v143.053l-68.267 34.133V256a17.063 17.063 0 00-5.649-12.68L34.137 94.805V34.133h409.6v60.672z"/></svg><svg viewBox="0 0 23 15" id="google" xmlns="http://www.w3.org/2000/svg"><path d="M22.691 5.835v.069l-.014 1.816-.001.076H20.17l-.018 2.431-.001.069H18.19v-.069l.019-2.431h-2.507l.001-.076.014-1.816v-.069h2.507l.018-2.438.001-.069H20.204l-.001.069-.018 2.438H22.691zm-13.584 8.28a7.722 7.722 0 01-2.356.235c-1.409-.083-2.689-.525-3.823-1.361C1.466 11.912.545 10.475.158 8.701A6.498 6.498 0 01.02 6.767a7.048 7.048 0 011.62-4.102A7.123 7.123 0 015.505.207a5.767 5.767 0 011.19-.186C6.922.013 7.15 0 7.378 0a6.743 6.743 0 013.398.932c.701.401 1.098.808 1.269.932-.716.705-1.404 1.395-2.107 2.086-.522-.45-1.099-.863-2.099-1.016a4.423 4.423 0 00-.613-.044c-2.007 0-3.688 1.451-4.136 3.353a3.945 3.945 0 00-.1 1.298c.153 1.768 1.336 3.218 2.935 3.736.407.128.829.189 1.254.189.099 0 .198-.003.298-.009.753-.049 1.458-.249 2.098-.671 1.075-.732 1.423-1.878 1.425-2.161H7.154l.021-2.77.007-.117h6.754c.364 2.107.036 4.323-1.275 6.056-.907 1.195-2.114 1.948-3.554 2.321z"/></svg><svg viewBox="0 0 15 15" id="grid-1"><path fill-rule="evenodd" d="M0 3.75h3.75V0H0v3.75zM5.625 15h3.75v-3.75h-3.75V15zM0 15h3.75v-3.75H0V15zm0-5.625h3.75v-3.75H0v3.75zm5.625 0h3.75v-3.75h-3.75v3.75zM11.25 0v3.75H15V0h-3.75zM5.625 3.75h3.75V0h-3.75v3.75zm5.625 5.625H15v-3.75h-3.75v3.75zm0 5.625H15v-3.75h-3.75V15z"/></svg><svg viewBox="0 0 20 15" id="grid-2"><path fill-rule="evenodd" d="M5.835 14.998v-4.171h14.159v4.171H5.835zm0-9.585h14.159v4.172H5.835V5.413zm0-5.413h14.159v4.172H5.835V0zM.007 10.827h4.422v4.171H.007v-4.171zm0-5.414h4.422v4.172H.007V5.413zM.007 0h4.422v4.172H.007V0z"/></svg><svg viewBox="0 0 22 18" id="heart" xmlns="http://www.w3.org/2000/svg"><defs><style>.ncls-1{fill:#a3bbc8;fill-rule:evenodd}</style></defs><path id="nForma_1" data-name="Forma 1" class="ncls-1" d="M882.99 1569.82a6.208 6.208 0 00-1.849-4.1A5.871 5.871 0 00877 1564c-2.311 0-3.948 1.78-4.827 2.74a2.156 2.156 0 01-.156.17l-.083-.09c-.8-.92-2.476-2.82-4.938-2.82a5.873 5.873 0 00-4.139 1.72 6.208 6.208 0 00-1.849 4.1 6.845 6.845 0 001.271 4.34 29.307 29.307 0 004.763 4.75c1.705 1.41 3.95 3.09 4.965 3.09 1.032 0 3.269-1.68 4.965-3.09a29.234 29.234 0 004.746-4.75 6.935 6.935 0 001.272-4.34zm-2.376 3.61a27 27 0 01-4.431 4.42c-2.406 2-3.831 2.79-4.172 2.82-.342-.03-1.77-.83-4.188-2.84a26.78 26.78 0 01-4.437-4.4 5.6 5.6 0 01-1.054-3.54 4.807 4.807 0 014.666-4.57c1.863 0 3.216 1.54 3.943 2.37a1.52 1.52 0 001.059.76 1.731 1.731 0 001.151-.81c.794-.87 2.122-2.32 3.851-2.32a4.807 4.807 0 014.666 4.57 5.528 5.528 0 01-1.054 3.54z" transform="translate(-861 -1564)"/></svg><svg viewBox="0 0 18 18" id="instagram" xmlns="http://www.w3.org/2000/svg"><path d="M16.908 13.563c-.533 1.96-1.813 3.12-3.797 3.439-.742.119-2.745.191-4.744.191-2.047 0-4.091-.075-4.779-.254-1.95-.504-3.114-1.774-3.424-3.749-.231-1.451-.255-8.191.164-9.654C.874 1.63 2.147.51 4.075.193c.874-.143 2.583-.194 4.31-.194 1.605 0 3.224.044 4.199.098 1.18.062 2.261.442 3.139 1.284.836.801 1.264 1.802 1.372 2.935.128 1.353.211 7.748-.187 9.247zm-1.361-9.102c-.154-1.513-1.079-2.507-2.575-2.742-.741-.112-2.525-.162-4.3-.162-1.712 0-3.416.047-4.166.128-1.5.172-2.508 1.098-2.747 2.59-.247 1.58-.245 7.492-.06 8.68.191 1.236.889 2.085 2.122 2.43.668.188 2.666.254 4.626.254 1.803 0 3.575-.056 4.24-.129 1.514-.166 2.515-1.098 2.754-2.603.247-1.513.247-7.03.106-8.446zm-2.338.594a1.033 1.033 0 01.01-2.065h.012c.567 0 1.026.463 1.021 1.036a1.042 1.042 0 01-1.043 1.029zM8.563 13.01a4.365 4.365 0 01-4.372-4.413 4.443 4.443 0 014.446-4.406 4.37 4.37 0 014.372 4.413 4.451 4.451 0 01-4.446 4.406zm.083-7.265H8.62A2.881 2.881 0 005.744 8.57a2.827 2.827 0 002.803 2.879h.026a2.88 2.88 0 002.876-2.824 2.824 2.824 0 00-2.803-2.88z"/></svg><svg viewBox="0 0 20 16" id="like" xmlns="http://www.w3.org/2000/svg"><path d="M19.992 5.172a5.469 5.469 0 00-1.683-3.645A5.396 5.396 0 0014.547 0c-2.102 0-3.59 1.582-4.39 2.438a1.67 1.67 0 01-.141.148l-.075-.078C9.211 1.688 7.687 0 5.45 0a5.42 5.42 0 00-3.761 1.527 5.482 5.482 0 00-1.68 3.645 5.964 5.964 0 001.156 3.86 26.204 26.204 0 004.328 4.222C7.043 14.508 9.082 16 10.008 16c.937 0 2.969-1.492 4.512-2.746a26.284 26.284 0 004.316-4.223 6.086 6.086 0 001.156-3.86zm-2.16 3.21a24.295 24.295 0 01-4.031 3.93c-2.184 1.778-3.48 2.481-3.79 2.504-.312-.023-1.609-.738-3.808-2.523a24.05 24.05 0 01-4.035-3.91 4.913 4.913 0 01-.957-3.149c.113-2.226 1.96-4 4.242-4.062 1.692 0 2.922 1.371 3.586 2.11.2.355.55.6.961.675a1.584 1.584 0 001.047-.723c.723-.773 1.93-2.062 3.5-2.062 2.281.062 4.129 1.836 4.242 4.062a4.839 4.839 0 01-.957 3.149zm0 0" fill="#abc1cd"/></svg><svg viewBox="0 0 20 16" id="like-white" xmlns="http://www.w3.org/2000/svg"><path d="M19.992 5.172a5.469 5.469 0 00-1.683-3.645A5.396 5.396 0 0014.547 0c-2.102 0-3.59 1.582-4.39 2.438a1.67 1.67 0 01-.141.148l-.075-.078C9.211 1.688 7.687 0 5.45 0a5.42 5.42 0 00-3.761 1.527 5.482 5.482 0 00-1.68 3.645 5.964 5.964 0 001.156 3.86 26.204 26.204 0 004.328 4.222C7.043 14.508 9.082 16 10.008 16c.937 0 2.969-1.492 4.512-2.746a26.284 26.284 0 004.316-4.223 6.086 6.086 0 001.156-3.86zm-2.16 3.21a24.295 24.295 0 01-4.031 3.93c-2.184 1.778-3.48 2.481-3.79 2.504-.312-.023-1.609-.738-3.808-2.523a24.05 24.05 0 01-4.035-3.91 4.913 4.913 0 01-.957-3.149c.113-2.226 1.96-4 4.242-4.062 1.692 0 2.922 1.371 3.586 2.11.2.355.55.6.961.675a1.584 1.584 0 001.047-.723c.723-.773 1.93-2.062 3.5-2.062 2.281.062 4.129 1.836 4.242 4.062a4.839 4.839 0 01-.957 3.149zm0 0" fill="#fff"/></svg><svg viewBox="0 -53 384 384" id="menu"><path d="M368 154.668H16c-8.832 0-16-7.168-16-16s7.168-16 16-16h352c8.832 0 16 7.168 16 16s-7.168 16-16 16zm0 0M368 32H16C7.168 32 0 24.832 0 16S7.168 0 16 0h352c8.832 0 16 7.168 16 16s-7.168 16-16 16zm0 0M368 277.332H16c-8.832 0-16-7.168-16-16s7.168-16 16-16h352c8.832 0 16 7.168 16 16s-7.168 16-16 16zm0 0"/></svg><svg viewBox="0 0 37 38" id="projects" xmlns="http://www.w3.org/2000/svg"><path fill-rule="evenodd" fill="#A3BBC8" d="M35.489 11.992l-17.485 17.64a.914.914 0 01-.396.234l-5.697 1.595a5.076 5.076 0 01-.226.029H7.059a.907.907 0 01-.901-.911c0-.502.404-.909.901-.909h3.94l1.394-5.066a.907.907 0 01.231-.4l.014-.015H7.059a.906.906 0 01-.901-.91c0-.503.404-.91.901-.91h7.384l5.432-5.48H7.059a.906.906 0 01-.901-.91c0-.504.404-.911.901-.911H21.68l8.429-8.503a3.036 3.036 0 014.318 0l1.062 1.071a3.102 3.102 0 010 4.356zM13.718 26.595l-.736 2.677 2.652-.744-1.916-1.933zm15.254-16.308L14.538 24.848l2.827 2.853L31.8 13.139l-2.828-2.852zm5.24-1.364L33.15 7.852a1.241 1.241 0 00-1.766 0l-1.136 1.147 2.828 2.853 1.136-1.147a1.27 1.27 0 000-1.782zm-5.67-2.91a.907.907 0 01-.902-.91V2.23a.17.17 0 00-.168-.17H9.284v5.552c0 1.097-.886 1.99-1.974 1.99H1.807v26.367c0 .093.076.17.168.17h25.497a.17.17 0 00.168-.17V22.067c0-.502.404-.91.902-.91s.902.408.902.91v13.902a1.984 1.984 0 01-1.973 1.991H1.975a1.984 1.984 0 01-1.973-1.991V8.691c0-.241.095-.472.264-.643L7.742.506a.9.9 0 01.639-.267h19.091c1.088 0 1.972.893 1.972 1.991v2.873c0 .502-.404.91-.902.91zM7.478 3.347L3.083 7.782H7.31a.17.17 0 00.168-.17V3.347z"/></svg><svg viewBox="0 0 64 57" id="rate" xmlns="http://www.w3.org/2000/svg"><path fill-rule="evenodd" fill="#243F4D" d="M60.635 47.856H38.943l.877 7h3.634a1.073 1.073 0 110 2.144H20.546a1.073 1.073 0 110-2.144h3.633l.877-7H3.365A3.364 3.364 0 010 44.499V3.357A3.365 3.365 0 013.365 0h57.27A3.365 3.365 0 0164 3.357v41.142a3.364 3.364 0 01-3.365 3.357zm-22.979 7.001l-.877-7h-9.558l-.877 7h11.312zm24.196-51.5c0-.67-.546-1.215-1.217-1.215H3.365c-.672 0-1.217.545-1.217 1.215v41.142c0 .67.545 1.215 1.217 1.215h57.27c.671 0 1.217-.545 1.217-1.215V3.357zm-3.508 38.785H13.673a1.072 1.072 0 01-1.074-1.071c0-.592.481-1.071 1.074-1.071h43.598V6.714h-2.363c-.593 0-1.074-.48-1.074-1.071 0-.592.481-1.072 1.074-1.072h3.436c.593 0 1.074.48 1.074 1.072v35.428c0 .592-.481 1.071-1.074 1.071zM52.546 20.5v16c0 .591-.481 1.071-1.074 1.071-.593 0-1.074-.48-1.074-1.071v-16a1.073 1.073 0 012.148 0zM39.564 34.214V36.5c0 .591-.48 1.071-1.073 1.071-.594 0-1.074-.48-1.074-1.071v-2.286a1.073 1.073 0 012.147 0zm-12.981-6.857V36.5c0 .591-.481 1.071-1.074 1.071-.593 0-1.074-.48-1.074-1.071v-9.143a1.073 1.073 0 012.148 0zm28.253-13.714a3.364 3.364 0 01-4.772 3.047l-8.604 9.09c.252.47.395 1.007.395 1.577a3.364 3.364 0 11-6.685-.542l-7.348-3.881a3.354 3.354 0 01-3.852.549l-8.406 8.141c.21.439.329.929.329 1.447a3.365 3.365 0 01-6.73 0 3.365 3.365 0 014.904-2.984l8.406-8.141a3.338 3.338 0 01-.328-1.446 3.365 3.365 0 016.729 0c0 .184-.016.365-.045.541l7.348 3.882a3.355 3.355 0 013.722-.614l8.603-9.09a3.341 3.341 0 01-.395-1.576 3.365 3.365 0 016.729 0zM12.528 31.857c-.671 0-1.217.544-1.217 1.214a1.217 1.217 0 002.434 0c0-.67-.546-1.214-1.217-1.214zm12.981-12.571c-.671 0-1.217.544-1.217 1.214a1.217 1.217 0 002.434 0c0-.67-.546-1.214-1.217-1.214zm12.982 6.856c-.672 0-1.217.545-1.217 1.215a1.217 1.217 0 002.434 0c0-.67-.546-1.215-1.217-1.215zm12.981-13.714c-.671 0-1.217.545-1.217 1.215a1.217 1.217 0 002.434 0c0-.67-.546-1.215-1.217-1.215zm-1.145-5.714H6.729V40h2.363c.593 0 1.074.48 1.074 1.071 0 .592-.481 1.071-1.074 1.071H5.655a1.071 1.071 0 01-1.073-1.071V5.643c0-.592.48-1.072 1.073-1.072h44.672a1.072 1.072 0 110 2.143z"/></svg><svg viewBox="0 0 44 40" id="revenue" xmlns="http://www.w3.org/2000/svg"><path fill-rule="evenodd" fill="#A3BBC8" d="M37.869 21.953v7.126a2.18 2.18 0 01-1.051 1.887 2.09 2.09 0 01-1.081.304c-.358 0-.717-.094-1.046-.283-5.96-3.423-12.407-5.52-19.185-6.244l4.159 11.785c.235.663.14 1.406-.255 1.986a2.1 2.1 0 01-1.731.925h-4.858a2.124 2.124 0 01-1.986-1.428l-4.84-13.723a3.34 3.34 0 01-1.919-2.664H2.715c-1.489 0-2.701-1.244-2.701-2.774v-6.096c0-1.529 1.212-2.774 2.701-2.774h1.361c.19-1.658 1.566-2.949 3.231-2.949 0 0 6.628-.03 6.684-.034 7.333-.558 14.298-2.706 20.7-6.383a2.07 2.07 0 012.127.021 2.18 2.18 0 011.052 1.887v7.126c2.964.394 5.262 3.002 5.262 6.152 0 3.151-2.298 5.759-5.263 6.153zM4.052 12.12H2.715a.628.628 0 00-.618.634v6.096c0 .35.278.634.618.634h1.337V12.12zm8.925-2.949h-5.67c-.646 0-1.171.54-1.171 1.203V21.23c0 .489.285.91.693 1.098.151.066.195.077.403.101.025.002 5.745.004 5.745.004V9.171zm.252 15.402H8.31l4.484 12.708c.003.01.015.018.027.018h4.858c.009 0 .015 0 .024-.013.01-.013.007-.019.004-.028l-4.478-12.685zM35.786 2.522c0-.016 0-.028-.022-.041-.026-.016-.043-.007-.056 0-6.403 3.678-13.345 5.885-20.648 6.571V22.55c7.303.684 14.245 2.892 20.648 6.57.013.007.029.016.056 0 .022-.013.022-.026.022-.041V2.522zm2.084 9.291v7.974c1.81-.373 3.179-2.019 3.179-3.987s-1.369-3.614-3.179-3.987z"/></svg><svg viewBox="0 0 20 20" id="search" xmlns="http://www.w3.org/2000/svg"><path d="M19.45 16.8l-4.587-4.59a8.84 8.84 0 01-2.652 2.65l4.59 4.59c.73.734 1.918.734 2.648 0a1.87 1.87 0 000-2.65zM15 7.5C15 3.36 11.64 0 7.5 0 3.36 0 0 3.36 0 7.5 0 11.64 3.36 15 7.5 15c4.14 0 7.5-3.36 7.5-7.5zm-7.5 5.621a5.627 5.627 0 01-5.625-5.629 5.621 5.621 0 015.629-5.62 5.624 5.624 0 01-.004 11.25zM3.125 7.5h1.25A3.132 3.132 0 017.5 4.371v-1.25A4.386 4.386 0 003.125 7.5zm0 0"/></svg><svg viewBox="0 0 20 20" id="search-white" xmlns="http://www.w3.org/2000/svg"><path d="M19.45 16.8l-4.587-4.59a8.84 8.84 0 01-2.652 2.65l4.59 4.59c.73.734 1.918.734 2.648 0a1.87 1.87 0 000-2.65zM15 7.5C15 3.36 11.64 0 7.5 0 3.36 0 0 3.36 0 7.5 0 11.64 3.36 15 7.5 15c4.14 0 7.5-3.36 7.5-7.5zm-7.5 5.621a5.627 5.627 0 01-5.625-5.629 5.621 5.621 0 015.629-5.62 5.624 5.624 0 01-.004 11.25zM3.125 7.5h1.25A3.132 3.132 0 017.5 4.371v-1.25A4.386 4.386 0 003.125 7.5zm0 0" fill="#fff"/></svg><svg viewBox="0 0 67 64" id="time" xmlns="http://www.w3.org/2000/svg"><path fill-rule="evenodd" fill="#243F4D" d="M58.493 37.654c-.185 0-.371-.046-.542-.144l-2.005-1.145a1.068 1.068 0 01-.397-1.467c.3-.513.963-.689 1.482-.393l2.005 1.146c.519.296.697.953.397 1.466a1.085 1.085 0 01-.94.537zm-1.461-19.615a1.087 1.087 0 01-.542.144c-.375 0-.74-.192-.941-.537a1.068 1.068 0 01.397-1.467l2.005-1.145a1.09 1.09 0 011.482.393c.3.513.122 1.17-.397 1.467l-2.004 1.145zm5.338 8.233a1.08 1.08 0 01-1.085 1.074H58.97a1.08 1.08 0 01-1.085-1.074 1.08 1.08 0 011.085-1.074h2.315a1.08 1.08 0 011.085 1.074zm-3.411 18.837l2.113-.418a1.085 1.085 0 011.277.842 1.074 1.074 0 01-.851 1.264l-5.787 1.145a1.099 1.099 0 01-.981-.293 1.068 1.068 0 01-.296-.97l1.157-5.727a1.085 1.085 0 011.277-.843c.588.116.969.682.851 1.264l-.483 2.393c4.845-4.549 7.594-10.831 7.594-17.494 0-13.303-10.937-24.125-24.379-24.125-7.923 0-15.38 3.833-19.948 10.252a1.093 1.093 0 01-1.512.26 1.066 1.066 0 01-.262-1.496C23.702 4.173 31.823-.001 40.45-.001 55.09-.001 67 11.786 67 26.272c0 7.151-2.906 13.901-8.041 18.837zM24.411 18.183c-.184 0-.371-.046-.542-.144l-2.004-1.146a1.066 1.066 0 01-.397-1.466 1.09 1.09 0 011.482-.393l2.005 1.145c.519.296.696.953.397 1.467a1.088 1.088 0 01-.941.537zm.544 18.182l-2.005 1.146a1.087 1.087 0 01-1.482-.393 1.067 1.067 0 01.397-1.467l2.004-1.146a1.093 1.093 0 011.483.393 1.068 1.068 0 01-.397 1.467zm6.778 4.848c.519.297.697.953.397 1.467l-1.157 1.984a1.088 1.088 0 01-1.482.393 1.069 1.069 0 01-.398-1.467l1.158-1.984c.3-.513.963-.689 1.482-.393zm-.541-29.738c-.375 0-.74-.192-.941-.537l-1.157-1.984c-.3-.513-.122-1.17.397-1.466a1.09 1.09 0 011.482.392l1.157 1.984c.3.514.122 1.171-.397 1.467a1.084 1.084 0 01-.541.144zm8.029 11.034c0 3.627-2.959 5.225-5.337 6.509-1.927 1.04-3.263 1.822-3.735 3.053h7.987c.599 0 1.085.48 1.085 1.074a1.08 1.08 0 01-1.086 1.073h-9.259a1.08 1.08 0 01-1.086-1.073c0-3.283 2.685-4.733 5.054-6.012 2.617-1.414 4.206-2.43 4.206-4.624 0-1.754-1.59-3.181-3.544-3.181-1.955 0-3.545 1.427-3.545 3.181a1.08 1.08 0 01-1.085 1.074 1.08 1.08 0 01-1.085-1.074c0-2.938 2.563-5.329 5.715-5.329 3.151 0 5.715 2.391 5.715 5.329zM50.65 41.606l1.157 1.984c.3.514.122 1.17-.397 1.467a1.088 1.088 0 01-1.482-.393l-1.157-1.984c-.3-.514-.122-1.17.397-1.467a1.092 1.092 0 011.482.393zM39.365 7.946V5.655a1.08 1.08 0 011.085-1.074c.6 0 1.085.481 1.086 1.074v2.291A1.08 1.08 0 0140.45 9.02a1.08 1.08 0 01-1.085-1.074zm10.344 3.529c-.184 0-.37-.046-.541-.144a1.067 1.067 0 01-.397-1.467l1.157-1.984c.3-.513.963-.689 1.482-.393.519.297.697.954.398 1.467l-1.158 1.984a1.088 1.088 0 01-.941.537zm3.401 17.088a1.08 1.08 0 01-1.085 1.074h-1.23v3.508c0 .593-.486 1.073-1.085 1.073a1.08 1.08 0 01-1.085-1.073v-3.508h-7.017c-.329 0-.641-.148-.847-.402a1.067 1.067 0 01-.213-.905l2.315-10.309c.13-.578.71-.944 1.295-.815.585.128.954.703.824 1.281l-2.021 9.002h5.664v-9.235a1.08 1.08 0 011.085-1.074c.6 0 1.085.481 1.085 1.074v9.235h1.23a1.08 1.08 0 011.085 1.074zm-33.418-1.959l-4.07 4.026c-.833.826-.937 2.147-.241 3.073a73.665 73.665 0 007.078 8.082 73.959 73.959 0 008.167 7.004c.937.689 2.271.586 3.105-.239l4.069-4.027a4.608 4.608 0 015.457-.741l11.588 6.45a4.355 4.355 0 012.212 3.229c.2 1.443-.294 2.872-1.354 3.921l-4.292 4.247C49.815 63.208 47.555 64 44.778 64c-2.5 0-5.419-.641-8.652-1.927-6.528-2.596-13.671-7.536-20.112-13.91C9.573 41.789 4.581 34.721 1.957 28.26c-2.742-6.753-2.583-12.125.449-15.125l4.292-4.247a4.697 4.697 0 013.962-1.339 4.395 4.395 0 013.263 2.188l6.518 11.467a4.49 4.49 0 01-.749 5.4zm-1.142-4.347L12.032 10.79a2.24 2.24 0 00-1.668-1.113 2.547 2.547 0 00-2.131.73l-.75.741 1.344 2.44c.287.52.093 1.172-.433 1.457a1.09 1.09 0 01-1.472-.429l-1.039-1.885-1.942 1.922c-2.344 2.32-2.333 6.988.03 12.807 2.517 6.198 7.339 13.011 13.577 19.185 6.239 6.173 13.124 10.945 19.387 13.435 5.88 2.339 10.597 2.35 12.941.03l1.943-1.922-9.319-5.03a1.068 1.068 0 01-.433-1.457c.287-.52.946-.712 1.472-.428l9.879 5.332.75-.742c.576-.57.845-1.339.738-2.11a2.221 2.221 0 00-1.125-1.65l-11.588-6.45a2.414 2.414 0 00-2.858.389l-1.937 1.916 1.904 1.028c.526.283.72.936.433 1.456a1.09 1.09 0 01-1.472.429l-2.464-1.33-.533.528c-1.59 1.572-4.14 1.763-5.934.444a76.005 76.005 0 01-8.407-7.21 75.699 75.699 0 01-7.286-8.319c-1.333-1.775-1.14-4.3.449-5.872l.533-.528-5.387-9.773a1.068 1.068 0 01.433-1.457 1.09 1.09 0 011.472.429l5.082 9.219 1.936-1.917a2.352 2.352 0 00.393-2.828z"/></svg><svg viewBox="0 0 22 25" id="video" xmlns="http://www.w3.org/2000/svg"><defs><style>.ycls-1{fill:#fff;fill-rule:evenodd}</style></defs><path id="yForm_24" data-name="Form 24" class="ycls-1" d="M970.684 3900.74l-16.044 9.8a3.228 3.228 0 01-3.062.14 2.685 2.685 0 01-1.579-2.39v-19.59a2.685 2.685 0 011.579-2.39 3.258 3.258 0 013.062.15l16.044 9.79a2.666 2.666 0 011.316 2.25 2.638 2.638 0 01-1.316 2.24z" transform="translate(-950 -3886)"/></svg></svg>