<svg 
 xmlns="http://www.w3.org/2000/svg"
 xmlns:xlink="http://www.w3.org/1999/xlink"
 width="49px" height="64px">
<path fill-rule="evenodd"  fill="rgb(36, 63, 77)"
 d="M47.581,22.502 C48.247,23.604 48.247,24.974 47.582,26.077 L46.268,28.251 C46.095,28.538 46.028,28.878 46.080,29.209 L46.471,31.722 C46.670,33.001 46.150,34.269 45.112,35.031 L43.076,36.526 C42.806,36.724 42.615,37.012 42.537,37.339 L41.944,39.812 C41.643,41.068 40.682,42.038 39.438,42.341 L38.454,42.582 L45.381,58.182 C45.528,58.513 45.488,58.899 45.274,59.191 C45.061,59.484 44.709,59.638 44.352,59.595 L38.780,58.923 L35.571,63.568 C35.383,63.840 35.077,64.000 34.752,64.000 C34.721,64.000 34.690,63.998 34.659,63.995 C34.300,63.961 33.988,63.735 33.841,63.404 L26.761,47.460 L25.832,48.032 C25.286,48.368 24.674,48.535 24.062,48.535 C23.449,48.535 22.837,48.368 22.291,48.032 L21.395,47.480 L14.324,63.404 C14.176,63.735 13.864,63.961 13.506,63.995 C13.475,63.998 13.443,64.000 13.412,64.000 C13.088,64.000 12.781,63.840 12.594,63.568 L9.384,58.923 L3.813,59.595 C3.456,59.638 3.103,59.484 2.890,59.191 C2.677,58.899 2.636,58.513 2.783,58.182 L9.707,42.591 L8.684,42.341 C7.440,42.037 6.480,41.067 6.179,39.811 L5.586,37.338 C5.508,37.011 5.316,36.723 5.047,36.525 L3.011,35.031 C1.974,34.269 1.453,33.000 1.652,31.720 L2.044,29.209 C2.096,28.878 2.029,28.538 1.856,28.251 L0.542,26.077 C-0.124,24.974 -0.124,23.604 0.542,22.502 L1.856,20.327 C2.029,20.041 2.096,19.701 2.044,19.369 L1.653,16.857 C1.453,15.577 1.974,14.309 3.012,13.547 L5.048,12.052 C5.317,11.855 5.508,11.566 5.587,11.240 L6.180,8.766 C6.481,7.510 7.441,6.541 8.685,6.237 L11.135,5.638 C11.459,5.559 11.745,5.366 11.941,5.095 L13.421,3.039 C14.176,1.992 15.433,1.466 16.700,1.668 L19.188,2.063 C19.517,2.115 19.854,2.047 20.137,1.873 L22.291,0.547 C23.383,-0.125 24.740,-0.126 25.832,0.547 L27.987,1.873 C28.270,2.048 28.608,2.115 28.936,2.063 L31.424,1.668 C32.692,1.466 33.948,1.993 34.703,3.040 L36.184,5.095 C36.380,5.367 36.666,5.560 36.989,5.639 L39.439,6.238 C40.684,6.542 41.644,7.511 41.945,8.767 L42.538,11.241 C42.616,11.567 42.807,11.855 43.076,12.053 L45.112,13.548 C46.150,14.310 46.671,15.578 46.471,16.858 L46.080,19.369 C46.028,19.701 46.095,20.041 46.268,20.327 L47.581,22.502 ZM34.942,60.955 L37.485,57.274 C37.696,56.968 38.056,56.805 38.423,56.849 L42.838,57.382 L36.519,43.153 C36.391,43.243 36.276,43.354 36.183,43.484 L34.702,45.539 C34.570,45.723 34.421,45.889 34.260,46.040 L37.593,53.546 C37.819,54.053 37.594,54.650 37.091,54.878 C36.958,54.938 36.820,54.966 36.683,54.966 C36.302,54.966 35.938,54.744 35.771,54.370 L32.460,46.914 C32.122,46.965 31.773,46.966 31.423,46.911 L28.936,46.516 C28.800,46.494 28.663,46.494 28.528,46.512 L34.942,60.955 ZM5.327,57.382 L9.742,56.849 C10.108,56.805 10.468,56.968 10.679,57.274 L13.223,60.955 L19.634,46.518 C19.487,46.493 19.336,46.491 19.187,46.515 L16.699,46.910 C16.362,46.964 16.027,46.965 15.702,46.920 L12.393,54.370 C12.227,54.744 11.863,54.966 11.481,54.966 C11.345,54.966 11.206,54.937 11.074,54.877 C10.570,54.650 10.345,54.053 10.571,53.546 L13.891,46.068 C13.719,45.911 13.561,45.734 13.420,45.538 L11.939,43.483 C11.854,43.364 11.750,43.262 11.635,43.176 L5.327,57.382 ZM45.876,23.551 L44.563,21.377 C44.144,20.683 43.982,19.858 44.107,19.056 L44.499,16.545 C44.581,16.016 44.366,15.492 43.938,15.178 L41.902,13.683 C41.250,13.205 40.786,12.505 40.597,11.714 L40.004,9.241 C39.880,8.722 39.483,8.322 38.970,8.197 L36.520,7.598 C35.736,7.407 35.044,6.939 34.569,6.281 L33.088,4.225 C32.777,3.793 32.258,3.576 31.735,3.659 L29.246,4.054 C28.451,4.181 27.634,4.017 26.947,3.594 L24.792,2.268 C24.342,1.990 23.782,1.990 23.331,2.268 L21.177,3.594 C20.489,4.017 19.673,4.180 18.877,4.054 L16.390,3.659 C15.866,3.575 15.348,3.793 15.036,4.225 L13.555,6.280 C13.081,6.938 12.389,7.406 11.605,7.598 L9.155,8.196 C8.641,8.322 8.245,8.721 8.120,9.240 L7.527,11.713 C7.338,12.504 6.874,13.203 6.223,13.682 L4.186,15.177 C3.758,15.492 3.543,16.015 3.625,16.544 L4.017,19.056 C4.142,19.858 3.980,20.683 3.561,21.376 L2.247,23.551 C1.972,24.006 1.972,24.572 2.247,25.027 L3.561,27.201 C3.980,27.895 4.141,28.720 4.016,29.522 L3.625,32.034 C3.543,32.562 3.757,33.086 4.186,33.400 L6.221,34.895 C6.873,35.374 7.337,36.073 7.526,36.864 L8.119,39.337 C8.244,39.856 8.640,40.256 9.154,40.381 L11.604,40.980 C12.387,41.172 13.080,41.640 13.554,42.297 L15.035,44.353 C15.347,44.785 15.865,45.002 16.389,44.919 L18.877,44.524 C19.052,44.496 19.229,44.482 19.405,44.482 C20.026,44.482 20.641,44.654 21.176,44.984 L23.331,46.310 C23.781,46.588 24.342,46.588 24.793,46.310 L26.947,44.984 C27.634,44.561 28.451,44.398 29.246,44.524 L31.734,44.919 C32.257,45.003 32.776,44.786 33.087,44.353 L34.568,42.298 C35.042,41.640 35.735,41.172 36.519,40.981 L38.969,40.382 C39.482,40.257 39.879,39.857 40.003,39.338 L40.596,36.865 C40.786,36.074 41.249,35.375 41.901,34.896 L43.937,33.401 C44.366,33.086 44.581,32.563 44.498,32.035 L44.107,29.523 C43.982,28.720 44.144,27.896 44.563,27.202 L45.876,25.027 C46.151,24.572 46.151,24.006 45.876,23.551 ZM36.770,37.145 C33.274,40.675 28.645,42.475 23.999,42.475 C20.112,42.475 16.212,41.215 12.952,38.655 C12.517,38.312 12.439,37.679 12.778,37.240 C13.116,36.801 13.743,36.722 14.179,37.064 C20.542,42.063 29.647,41.485 35.358,35.720 C40.271,30.761 41.469,23.226 38.340,16.970 C38.091,16.473 38.289,15.867 38.781,15.617 C39.273,15.366 39.874,15.565 40.122,16.062 C43.641,23.096 42.294,31.569 36.770,37.145 ZM36.795,13.898 C36.519,13.898 36.244,13.783 36.046,13.558 C35.826,13.306 35.594,13.058 35.358,12.819 C35.122,12.581 34.876,12.347 34.626,12.125 C34.213,11.756 34.174,11.119 34.540,10.702 C34.905,10.285 35.536,10.245 35.949,10.614 C36.229,10.864 36.505,11.126 36.770,11.394 C37.035,11.662 37.295,11.940 37.543,12.223 C37.908,12.640 37.869,13.277 37.456,13.646 C37.266,13.815 37.030,13.898 36.795,13.898 ZM35.745,21.153 C35.965,21.837 35.777,22.565 35.254,23.053 L30.813,27.199 L31.992,33.190 C32.130,33.895 31.859,34.595 31.282,35.018 C30.706,35.441 29.962,35.485 29.341,35.134 L24.062,32.151 L18.782,35.134 C18.504,35.291 18.201,35.369 17.899,35.369 C17.528,35.369 17.159,35.251 16.841,35.018 C16.264,34.595 15.993,33.895 16.131,33.190 L17.310,27.199 L12.869,23.053 C12.346,22.565 12.158,21.837 12.378,21.153 C12.598,20.470 13.174,19.992 13.881,19.907 L19.889,19.188 L22.423,13.642 C22.722,12.990 23.349,12.584 24.062,12.584 C24.774,12.584 25.402,12.990 25.700,13.642 L28.234,19.188 L34.242,19.907 C34.949,19.992 35.525,20.470 35.745,21.153 ZM27.444,21.123 C27.099,21.082 26.800,20.863 26.655,20.545 L24.062,14.870 L21.469,20.545 C21.323,20.863 21.024,21.082 20.679,21.123 L14.531,21.859 L19.076,26.102 C19.331,26.341 19.446,26.695 19.378,27.039 L18.171,33.169 L23.574,30.116 C23.725,30.031 23.893,29.988 24.062,29.988 C24.230,29.988 24.398,30.031 24.549,30.116 L29.952,33.169 L28.745,27.039 C28.678,26.696 28.792,26.341 29.047,26.102 L33.592,21.859 L27.444,21.123 ZM31.249,9.811 C25.051,6.650 17.586,7.859 12.672,12.819 C6.961,18.584 6.389,27.776 11.341,34.199 C11.680,34.638 11.601,35.272 11.166,35.614 C10.984,35.757 10.768,35.826 10.554,35.826 C10.256,35.826 9.962,35.693 9.765,35.437 C4.196,28.213 4.838,17.876 11.260,11.394 C16.785,5.816 25.180,4.457 32.149,8.012 C32.642,8.263 32.839,8.869 32.590,9.366 C32.342,9.863 31.741,10.062 31.249,9.811 Z"/>
</svg>