<svg xmlns="http://www.w3.org/2000/svg" xmlns:xlink="http://www.w3.org/1999/xlink" width="20pt" height="18pt" viewBox="0 0 20 18" version="1.1">
    <g>
    <path d="M 0.738281 1.46875 L 2.859375 1.46875 L 5.882812 12.304688 C 5.972656 12.617188 6.265625 12.835938 6.597656 12.835938 L 15.882812 12.835938 C 16.175781 12.832031 16.441406 12.664062 16.5625 12.402344 L 19.941406 4.699219 C 20.039062 4.46875 20.015625 4.207031 19.878906 3.996094 C 19.742188 3.789062 19.511719 3.664062 19.261719 3.664062 L 9 3.664062 C 8.589844 3.664062 8.253906 3.992188 8.253906 4.402344 C 8.253906 4.808594 8.589844 5.140625 9 5.140625 L 18.128906 5.140625 L 15.390625 11.367188 L 7.152344 11.367188 L 4.132812 0.539062 C 4.042969 0.21875 3.75 -0.00390625 3.414062 0 L 0.738281 0 C 0.332031 0 0 0.328125 0 0.734375 C 0 1.136719 0.332031 1.46875 0.738281 1.46875 Z M 5.894531 18 C 6.824219 18.003906 7.578125 17.257812 7.582031 16.339844 C 7.582031 15.417969 6.828125 14.671875 5.902344 14.671875 C 4.972656 14.667969 4.21875 15.414062 4.21875 16.335938 C 4.21875 17.253906 4.96875 17.996094 5.894531 18 Z M 16.375 18 L 16.5 18 C 17.445312 17.96875 18.1875 17.191406 18.171875 16.253906 C 18.15625 15.320312 17.382812 14.570312 16.4375 14.570312 C 15.492188 14.570312 14.722656 15.320312 14.703125 16.253906 C 14.6875 17.191406 15.429688 17.96875 16.375 18 Z M 16.375 18 "/>
    </g>
</svg>
