<svg xmlns="http://www.w3.org/2000/svg" xmlns:xlink="http://www.w3.org/1999/xlink"
 width="18px" height="18px">
<path
 d="M17.249,17.920 C17.098,17.920 16.946,17.862 16.830,17.746 L11.531,12.448 C10.398,13.393 8.941,13.962 7.353,13.962 C3.752,13.962 0.822,11.032 0.822,7.431 C0.822,3.829 3.752,0.899 7.353,0.899 C10.955,0.899 13.884,3.829 13.884,7.431 C13.884,9.018 13.316,10.475 12.371,11.609 L17.669,16.907 C17.785,17.023 17.843,17.175 17.843,17.327 C17.843,17.478 17.785,17.630 17.669,17.746 C17.553,17.862 17.401,17.920 17.249,17.920 ZM7.353,2.087 C4.407,2.087 2.010,4.484 2.010,7.431 C2.010,10.377 4.407,12.775 7.353,12.775 C10.300,12.775 12.698,10.377 12.698,7.431 C12.698,4.484 10.300,2.087 7.353,2.087 Z"/>
</svg>