<svg xmlns="http://www.w3.org/2000/svg" xmlns:xlink="http://www.w3.org/1999/xlink" width="20pt" height="16pt" viewBox="0 0 20 16" version="1.1">
    <g>
    <path style="fill: #abc1cd;" d="M 19.992188 5.171875 C 19.917969 3.796875 19.316406 2.496094 18.308594 1.527344 C 17.3125 0.550781 15.957031 0.00390625 14.546875 0 C 12.445312 0 10.957031 1.582031 10.15625 2.4375 C 10.113281 2.488281 10.066406 2.539062 10.015625 2.585938 L 9.941406 2.507812 C 9.210938 1.6875 7.6875 0 5.449219 0 C 4.039062 0.00390625 2.6875 0.554688 1.6875 1.527344 C 0.683594 2.496094 0.0820312 3.796875 0.0078125 5.171875 C -0.0664062 6.550781 0.339844 7.910156 1.164062 9.03125 C 2.433594 10.597656 3.886719 12.011719 5.492188 13.253906 C 7.042969 14.507812 9.082031 16 10.007812 16 C 10.945312 16 12.976562 14.507812 14.519531 13.253906 C 16.121094 12.011719 17.566406 10.597656 18.835938 9.03125 C 19.648438 7.90625 20.058594 6.550781 19.992188 5.171875 Z M 17.832031 8.382812 C 16.648438 9.839844 15.296875 11.160156 13.800781 12.3125 C 11.617188 14.089844 10.320312 14.792969 10.011719 14.816406 C 9.699219 14.792969 8.402344 14.078125 6.203125 12.292969 C 4.707031 11.148438 3.351562 9.835938 2.167969 8.382812 C 1.496094 7.46875 1.15625 6.359375 1.210938 5.234375 C 1.324219 3.007812 3.171875 1.234375 5.453125 1.171875 C 7.144531 1.171875 8.375 2.542969 9.039062 3.28125 C 9.238281 3.636719 9.589844 3.882812 10 3.957031 C 10.4375 3.871094 10.816406 3.609375 11.046875 3.234375 C 11.769531 2.460938 12.976562 1.171875 14.546875 1.171875 C 16.828125 1.234375 18.675781 3.007812 18.789062 5.234375 C 18.847656 6.359375 18.511719 7.472656 17.832031 8.382812 Z M 17.832031 8.382812 "/>
    </g>
</svg>
