<svg xmlns="http://www.w3.org/2000/svg" xmlns:xlink="http://www.w3.org/1999/xlink" width="20pt" height="20pt" viewBox="0 0 20 20" version="1.1">
    <g>
    <path style="fill: #fff;" d="M 19.449219 16.800781 L 14.863281 12.210938 C 14.179688 13.273438 13.273438 14.175781 12.210938 14.859375 L 16.800781 19.449219 C 17.53125 20.183594 18.71875 20.183594 19.449219 19.449219 C 20.179688 18.71875 20.183594 17.53125 19.449219 16.800781 Z M 15 7.5 C 15 3.359375 11.640625 0 7.5 0 C 3.359375 0 0 3.359375 0 7.5 C 0 11.640625 3.359375 15 7.5 15 C 11.640625 15 15 11.640625 15 7.5 Z M 7.5 13.121094 C 4.394531 13.121094 1.875 10.601562 1.875 7.492188 C 1.875 4.386719 4.394531 1.867188 7.503906 1.871094 C 10.609375 1.871094 13.128906 4.394531 13.125 7.5 C 13.121094 10.605469 10.605469 13.117188 7.5 13.121094 Z M 3.125 7.5 L 4.375 7.5 C 4.378906 5.773438 5.773438 4.375 7.5 4.371094 L 7.5 3.121094 C 5.085938 3.125 3.128906 5.085938 3.125 7.5 Z M 3.125 7.5 "/>
    </g>
</svg>

